<?xml version="1.0" standalone="no"?>
<!DOCTYPE svg PUBLIC "-//W3C//DTD SVG 1.1//EN" "http://www.w3.org/Graphics/SVG/1.1/DTD/svg11.dtd" >
<svg xmlns="http://www.w3.org/2000/svg">
<defs>
  <font id="Nucleo" horiz-adv-x="256">
    <font-face font-family="Nucleo"
      units-per-em="256" ascent="256"
      descent="0" />
    <missing-glyph horiz-adv-x="0" />
    <glyph glyph-name="circle-03"
      unicode="&#xEA02;"
      horiz-adv-x="256" d="M123.9091912988846 0.0653866845611C53.365165966285 2.321086726666 -2.1902507170355 61.5487423672823 0.0653866845611 132.0908087011155C2.321086726666 202.634834033715 61.5467833685159 258.1903133575438 132.0908087011155 255.9346133154389S258.1903133575438 194.4532166314841 255.9346133154389 123.9091912988846C253.6789759138423 53.3671249650514 194.4532166314841 -2.1903133575438 123.9091912988846 0.0653866845611zM131.3237820696563 231.9468733187942C74.0073561829732 233.7796105871358 25.8858639495475 188.6402079563394 24.0531266812059 131.3237820696563C22.2203280507337 74.0054371637735 67.3597920436607 25.8858639495475 124.6762179303437 24.0531266812059S230.114074688322 67.3578730244609 231.9468733187942 124.6762179303437C233.7796105871358 181.9926438170268 188.6402079563394 230.1141360504525 131.3237820696563 231.9468733187942zM255.9346133154389 123.9091912988846L231.9468733187942 124.6762179303437C233.7796105871358 181.9926438170268 188.6402079563394 230.1141360504525 131.3237820696563 231.9468733187942L529.182985329503 243.2372823179938C202.634834033715 253.6789132733341 258.1903133575438 194.4532166314841 255.9346133154389 123.9091912988846z" />
    <glyph glyph-name="left-arrow"
      unicode="&#xEA03;"
      horiz-adv-x="256" d="M121.999 189.499L60.504 127.998L122.247 66.255L183.99 4.512L189.738 10.26L195.486 16.008L139.496 72.004L83.507 128L139.484 183.984L195.462 239.969L190.015 245.484C187.019 248.518 184.327 251 184.031 251C183.736 251 155.821 223.325 121.999 189.499" />
    <glyph glyph-name="right-arrow"
      unicode="&#xEA04;"
      horiz-adv-x="256" d="M65.985 245.484L60.538 239.969L116.516 183.984L172.493 128L116.504 72.004L60.514 16.008L66.262 10.26L72.01 4.512L133.753 66.255L195.496 127.998L134.001 189.499C100.179 223.325 72.264 251 71.969 251C71.673 251 68.981 248.518 65.985 245.484" />
    <glyph glyph-name="up-arrow"
      unicode="&#xEA05;"
      horiz-adv-x="256" d="M66.004 133.504L4.514 72.008L10.261 66.261L16.008 60.514L72.004 116.504L128 172.493L183.996 116.504L239.992 60.514L245.739 66.261L251.486 72.008L189.996 133.504C156.177 167.327 128.278 195 128 195C127.722 195 99.823 167.327 66.004 133.504" />
    <glyph glyph-name="down-arrow"
      unicode="&#xEA06;"
      horiz-adv-x="256" d="M9.984 189.483L4.535 183.967L66.268 122.234L128 60.502L189.744 122.246L251.488 183.99L245.74 189.738L239.992 195.486L183.996 139.496L128 83.507L72.247 139.253C41.582 169.914 16.254 195 15.963 195C15.671 195 12.98 192.517 9.984 189.483" />
    <glyph glyph-name="move-layer-down"
      unicode="&#xEA07;"
      horiz-adv-x="256" d="M120 165.757L120 83.513L92.002 111.498L64.004 139.482L58.258 133.737L52.513 127.991L90.256 90.247L128 52.503L165.744 90.247L203.487 127.991L197.742 133.737L191.996 139.482L163.998 111.498L136 83.513L136 165.757L136 248L128 248L120 248L120 165.757M0 8L0 0L128 0L256 0L256 8L256 16L128 16L0 16L0 8" />
    <glyph glyph-name="move-up"
      unicode="&#xEA08;"
      horiz-adv-x="256" d="M90.003 217.503L52.516 180.006L58.26 174.262L64.004 168.518L92.002 196.502L120 224.487L120 142.243L120 60L128 60L136 60L136 142.243L136 224.487L163.998 196.502L191.996 168.518L197.74 174.262L203.484 180.006L165.997 217.503C145.379 238.126 128.281 255 128 255C127.719 255 110.621 238.126 90.003 217.503M0 8L0 0L128 0L256 0L256 8L256 16L128 16L0 16L0 8" />
    <glyph glyph-name="direction-53"
      unicode="&#xEA09;"
      horiz-adv-x="256" d="M177.987 245.487L172.542 239.973L196.513 215.987L220.484 192L118.242 192L16 192L16 184L16 176L118.242 176L220.484 176L196.502 152.002L172.519 128.003L178.264 122.258L184.009 116.513L217.751 150.254L251.493 183.996L218.002 217.498C199.582 235.924 184.268 251 183.971 251C183.675 251 180.982 248.519 177.987 245.487M37.998 105.498L4.507 71.996L38.249 38.254L71.991 4.513L77.736 10.258L83.481 16.003L59.498 40.002L35.516 64L137.758 64L240 64L240 72L240 80L137.758 80L35.516 80L59.487 103.987L83.458 127.973L78.013 133.487C75.018 136.519 72.325 139 72.029 139C71.732 139 56.418 123.924 37.998 105.498" />
    <glyph glyph-name="pdf"
      unicode="&#xEA0A;"
      horiz-adv-x="256" d="M24 203.731L24 151.462L14 141.5L4 131.538L4 83.769L4 36L14 36L24 36L24 18L24 0L128 0L232 0L232 18L232 36L242 36L252 36L252 83.769L252 131.538L242 141.5L232 151.462L232 169.487L232 187.511L197.745 221.755L163.489 256L93.745 256L24 256L24 203.731M152 208L152 176L184 176L216 176L216 156L216 136L128 136L40 136L40 188L40 240L96 240L152 240L152 208M186.5 210L204.479 192L186.24 192L168 192L168 210C168 219.9 168.117 228 168.26 228C168.404 228 176.611 219.9 186.5 210M236 86L236 52L128 52L20 52L20 86L20 120L128 120L236 120L236 86M82 86.594L82 68L86 68L90 68L90 74.361L90 80.721L95.126 81.329C101.538 82.088 104.746 84.149 106.664 88.739C108.526 93.194 107.737 98.031 104.544 101.746C102.297 104.359 101.66 104.518 92.088 104.844L82 105.187L82 86.594M115 86.384L115 67.767L124.868 68.164C133.629 68.516 135.209 68.873 138.947 71.346C144.521 75.035 146.315 79.428 145.82 88.178C145.365 96.228 143.399 99.47 136.98 102.75C133.401 104.579 130.93 105 123.788 105L115 105L115 86.384M155 86.5L155 68L159 68L163 68L163 75.5L163 83L169 83L175 83L175 86L175 89L169 89L163 89L163 94L163 99L170 99L177 99L177 102L177 105L166 105L155 105L155 86.5M132.423 97.597C136.524 95.883 138.477 90.926 137.715 84.164C137.047 78.239 133.593 75 127.944 75L124 75L124 87L124 99L126.532 99C127.925 99 130.576 98.369 132.423 97.597M97.418 97.393C99.337 96.657 99.58 90.7 97.75 89.263C97.063 88.723 95.037 88.004 93.25 87.666L90 87.05L90 92.525C90 97.908 90.049 98 92.918 98C94.523 98 96.548 97.727 97.418 97.393M216 26L216 16L128 16L40 16L40 26L40 36L128 36L216 36L216 26" />
    <glyph glyph-name="img-stack"
      unicode="&#xEA0B;"
      horiz-adv-x="256" d="M48 232L48 224L128 224L208 224L208 232L208 240L128 240L48 240L48 232M8 116L8 16L128 16L248 16L248 116L248 216L128 216L8 216L8 116M232 116L232 32L128 32L24 32L24 116L24 200L128 200L232 200L232 116M77.994 183.124C59.681 177.128 54.06 156.181 67.285 143.216C77.004 133.687 90.996 133.687 100.715 143.216C112.442 154.713 109.418 173.55 94.622 181.173C90.313 183.393 81.849 184.386 77.994 183.124M87.385 166.87C90.331 165.528 92.45 160.994 91.513 158.04C91.145 156.881 89.894 155.048 88.733 153.966C82.995 148.62 73.918 155.56 76.98 162.953C78.786 167.312 82.963 168.885 87.385 166.87M135.175 129.25C123.603 113.437 113.453 99.6 112.619 98.5C111.162 96.578 110.553 97.047 97.07 110.468C88.177 119.32 82.694 124.082 82.102 123.468C80.878 122.202 34 49.13 34 48.49C34 48.221 75.213 48 125.583 48C178.925 48 217.027 48.373 216.833 48.893C215.671 52.009 157.443 158 156.894 158C156.52 158 146.747 145.062 135.175 129.25M172.883 96.396C182.367 79.014 189.944 64.611 189.722 64.389C189.5 64.167 160.871 64.101 126.101 64.242L62.885 64.5L71.581 78C76.364 85.425 81.385 93.249 82.738 95.387L85.199 99.275L99 85.5L112.801 71.725L122.679 85.112C128.112 92.476 137.421 105.137 143.367 113.25C149.313 121.363 154.506 128 154.909 128C155.311 128 163.399 113.778 172.883 96.396" />
    <glyph glyph-name="shape-star-2"
      unicode="&#xEA0C;"
      horiz-adv-x="256" d="M251.804 156.176A4 4 0 0 1 248.572 158.9L167.74 170.648L131.6 243.896A4.16 4.16 0 0 1 124.428 243.896L88.26 170.648L7.424 158.9A4 4 0 0 1 5.2 152.08L63.704 95.06L49.896 14.552A4 4 0 0 1 55.696 10.336L128 48.344L200.304 10.344A4 4 0 0 1 206.104 14.56L192.296 95.06L250.8 152.08A4 4 0 0 1 251.804 156.176z" />
    <glyph glyph-name="shape-star-1"
      unicode="&#xEA0D;"
      horiz-adv-x="256" d="M107.5 211.249L87.5 171.5L44.179 165.346C20.352 161.961 0.563 158.896 0.203 158.536C-0.157 158.176 4.487 153.077 10.524 147.204C16.561 141.332 30.904 127.296 42.397 116.014L63.294 95.5L55.774 51.5C51.637 27.3 48.338 7.396 48.442 7.268C48.546 7.14 66.489 16.426 88.315 27.903L128 48.77L167.685 27.903C189.511 16.426 207.453 7.14 207.555 7.268C207.658 7.396 204.356 27.3 200.219 51.5L192.697 95.5L213.598 116.014C225.094 127.296 239.439 141.332 245.476 147.204C251.513 153.077 256.157 158.176 255.797 158.536C255.437 158.896 235.648 161.961 211.821 165.346L168.5 171.5L148.5 211.249C137.5 233.111 128.275 250.998 128 250.998C127.725 250.998 118.5 233.111 107.5 211.249M142.963 186.074C156.611 158.726 157.565 157.119 160.449 156.623C162.127 156.334 176.55 154.214 192.5 151.911C208.45 149.609 221.693 147.556 221.928 147.351C222.163 147.146 211.813 136.699 198.928 124.136L175.5 101.295L180.86 69.591C183.808 52.154 185.978 37.645 185.682 37.349C185.386 37.053 172.287 43.613 156.572 51.927L128 67.044L99.428 51.927C83.713 43.613 70.597 37.07 70.281 37.386C69.964 37.703 72.021 51.396 74.852 67.815C77.684 84.234 80 98.605 80 99.75C80 101.152 72.418 109.206 56.806 124.389C44.049 136.795 33.811 147.12 34.056 147.335C34.3 147.549 47.55 149.609 63.5 151.911C79.45 154.214 93.873 156.334 95.551 156.623C98.435 157.119 99.389 158.726 113.037 186.074C120.976 201.983 127.71 215 128 215C128.29 215 135.024 201.983 142.963 186.074" />
    <glyph glyph-name="zoom"
      unicode="&#xEA0E;"
      horiz-adv-x="256" d="M91.5 242.391C81.913 240.677 78.679 239.701 69.5 235.751C48.222 226.593 29.063 207.463 20.124 186.449C14.442 173.092 12.614 163.925 12.554 148.5C12.485 130.576 14.707 120.694 22.224 105.5C34.884 79.909 57.508 61.827 85.664 54.797C92.591 53.067 97.416 52.591 108 52.591C129.008 52.591 144.383 57.204 161.859 68.749L170.217 74.272L203.106 41.394L235.995 8.517L241.739 14.261L247.483 20.005L214.742 52.758C196.734 70.772 182 85.873 182 86.316C182 86.758 183.612 89.23 185.583 91.81C190.947 98.831 198.737 115.392 201.196 125C202.929 131.774 203.376 136.445 203.396 148C203.424 163.922 201.71 172.733 195.953 186.268C185.509 210.819 162.138 231.708 136 239.854C123.203 243.842 105.323 244.861 91.5 242.391M130.5 224.536C149.482 218.944 164.995 207.207 175.503 190.488C195.829 158.149 190.761 117.145 163.181 90.796C145.906 74.291 126.025 66.879 103 68.359C87.701 69.343 76.765 73.014 64.15 81.4C50.362 90.566 39.565 103.785 33.901 118.434C21.069 151.62 29.97 186.236 57.383 209.757C76.477 226.14 105.288 231.963 130.5 224.536" />
    <glyph glyph-name="heart-2"
      unicode="&#xEA0F;"
      horiz-adv-x="256" d="M225.22 220.504A64.976 64.976 0 0 1 179.124 240H178.528A63.779999999999994 63.779999999999994 0 0 1 128 215.352A63.776 63.776 0 0 1 77.48 240H77.22A65.356 65.356 0 0 1 12 174.18C12 111.572 120.8 20.752 125.448 16.916A4 4 0 0 1 130.552 16.916C135.2 20.752 244 111.572 244 174.148A64.948 64.948 0 0 1 225.22 220.504zM178.772 236z" />
    <glyph glyph-name="heart-1"
      unicode="&#xEA10;"
      horiz-adv-x="256" d="M66.5 243.352C42.41 238.345 25.131 225.317 14.969 204.5C4.123 182.281 6.24 157.951 21.522 129.178C38.125 97.918 75.496 54.86 117.896 18.138C123.063 13.662 127.61 10 128 10C128.39 10 132.937 13.662 138.104 18.138C171.931 47.435 204.851 83.237 223.491 111C252.207 153.772 255.452 187.815 233.57 216.736C217.696 237.715 190.746 247.815 164.815 242.501C155.176 240.526 140.928 233.41 133.75 226.986L128 221.84L122.25 226.986C115.072 233.41 100.824 240.526 91.185 242.501C84.438 243.884 71.245 244.339 66.5 243.352M94.202 225.136C106.473 220.843 114.784 213.966 123.121 201.21L127.885 193.92L132.872 201.311C141.745 214.459 150.198 221.281 163 225.625C170.938 228.318 188.318 228.098 196.249 225.206C217.012 217.632 231.978 196.596 231.968 175C231.958 152.98 216.285 123.668 185.201 87.531C175.432 76.175 142.451 42.871 133.75 35.577L128 30.757L122.25 35.563C119.088 38.207 107.721 49.174 96.991 59.935C41.51 115.575 18.348 156.43 25.38 186.25C29.985 205.78 45.471 221.605 64.782 226.514C72.389 228.448 86.643 227.78 94.202 225.136" />
    <glyph glyph-name="pin-3-1"
      unicode="&#xEA11;"
      horiz-adv-x="256" d="M128 252C82.776 252 36 217.444 36 159.62C36 99.04 121.532 12.812 125.172 9.172C125.92 8.42 126.94 8 128 8S130.08 8.42 130.828 9.172C134.468 12.812 220 99.04 220 159.62C220 217.444 173.224 252 128 252zM128 128C110.328 128 96 142.328 96 160S110.328 192 128 192S160 177.672 160 160S145.672 128 128 128z" />
    <glyph glyph-name="pin-3-2"
      unicode="&#xEA12;"
      horiz-adv-x="256" d="M117 255.431C101.764 252.791 96.051 251.008 84.634 245.332C61.717 233.94 45.02 215.282 37.148 192.272C34.268 183.852 32 170.296 32 161.5C32 129.172 51.966 89.316 93.701 38.333C105.577 23.824 126.371 1.5 128.008 1.5C128.771 1.5 135.2 7.8 142.293 15.5C168.727 44.196 192.948 76.779 205.849 101C224.304 135.647 228.268 162.014 219.3 190.459C209.449 221.704 182.876 245.591 149.064 253.597C142.659 255.113 121.99 256.295 117 255.431M149.5 236.965C165.914 231.834 179.962 222.749 190.093 210.713C197.263 202.193 201.232 194.68 204.481 183.473C211.242 160.158 207.967 139.87 192.729 110.677C180.46 87.171 155.834 53.432 133.115 29L128 23.5L122.875 29C113.973 38.553 98.846 57.036 88.907 70.502C59.542 110.291 46.716 140.323 48.337 165.5C49.014 176.007 52.797 189.964 57.218 198.257C67.807 218.124 91.251 234.737 114.763 239.035C122.951 240.532 141.655 239.417 149.5 236.965M119.932 199.043C109.359 197.133 97.135 187.712 92.15 177.633C86.935 167.088 86.935 152.946 92.15 142.339C95.165 136.206 104.206 127.165 110.339 124.15C117.415 120.672 126.605 119.355 134.44 120.697C143.203 122.198 149.401 125.46 155.97 132.03C162.54 138.599 165.802 144.797 167.303 153.56C171.173 176.155 154.276 197.779 131.5 199.377C127.65 199.648 122.444 199.497 119.932 199.043M138.622 181.177C146.993 176.873 151.434 169.53 151.429 160C151.419 138.942 126.711 128.144 111.812 142.685C98.256 155.917 103.589 177.098 121.994 183.124C125.845 184.385 134.311 183.394 138.622 181.177" />
    <glyph glyph-name="button-play"
      unicode="&#xEA13;"
      horiz-adv-x="256" d="M36 128C36 21.829 36.215 2.027 37.363 2.7C38.112 3.14 86.487 31.4 144.862 65.5C203.237 99.6 250.999 127.725 250.999 128C250.999 128.275 203.237 156.4 144.862 190.5C86.487 224.6 38.112 252.86 37.363 253.3C36.215 253.973 36 234.171 36 128M136.851 176.544C182.033 150.169 219 128.324 219 128C219 127.676 182.033 105.831 136.851 79.456C91.669 53.08 54.094 31.14 53.351 30.7C52.22 30.031 52 45.878 52 128C52 210.122 52.22 225.969 53.351 225.3C54.094 224.86 91.669 202.92 136.851 176.544" />
    <glyph glyph-name="play-media"
      unicode="&#xEA14;"
      horiz-adv-x="256" d="M224 240H32A16 16 0 0 1 16 224V32A16 16 0 0 1 32 16H224A16 16 0 0 1 240 32V224A16 16 0 0 1 224 240zM185.908 124.484L89.908 72.484A4 4 0 0 0 84 76V180A4 4 0 0 0 89.908 183.516L185.908 131.516A4 4 0 0 0 185.908 124.484z" />
    <glyph glyph-name="phone"
      unicode="&#xEA15;"
      horiz-adv-x="256" d="M49 243.079C22.528 236.196 22.635 236.229 18.943 233.741C13.715 230.217 9.218 223.64 8.426 218.354C7.653 213.201 9.577 200.651 13.573 184.778C21.297 154.097 37.683 121.171 58.002 95.5C66.447 84.83 84.26 67.196 96.107 57.777C127.575 32.758 165.254 16.022 205.049 9.387C214.141 7.871 216.25 7.81 220.309 8.947C226.055 10.555 233.024 16.47 235.3 21.669C237.408 26.484 246.913 62.92 247.677 69.112C248.672 77.176 244.546 85.902 237.614 90.397C235.467 91.789 222.863 97.748 209.605 103.639C188.459 113.035 184.677 114.403 178.794 114.785C169.276 115.403 164.614 112.956 156.65 103.162C153.267 99.002 149.33 94.261 147.9 92.625L145.3 89.652L141.422 92.048C134.705 96.199 118.744 109.444 112.436 116.101C105.495 123.425 95.476 135.876 92.011 141.483L89.652 145.3L92.625 147.9C94.261 149.33 99.002 153.267 103.162 156.65C112.955 164.613 115.403 169.276 114.787 178.794C114.404 184.711 113.018 188.499 103.006 211C93.169 233.105 91.048 237.102 87.073 241.019C82.294 245.727 76.883 248.042 70.884 247.945C69.023 247.915 59.175 245.725 49 243.079M75.637 230.124C78.14 227.792 99.25 180.581 99.25 177.316C99.25 174.104 97.638 172.481 82.25 160.214C74.963 154.404 69 149.274 69 148.814C69 147.543 78.651 132.392 84.487 124.5C93.094 112.862 106.966 98.532 119.5 88.332C125.255 83.65 140.876 73.127 145.94 70.522L149.38 68.752L152.44 72.587C166.772 90.546 172.861 97.629 175 98.826C177.346 100.139 179.065 99.529 202.872 88.94C216.826 82.734 229.088 76.748 230.122 75.639C231.155 74.53 232 72.8 232 71.795C232 69.087 222.225 32.025 220.522 28.276C219.622 26.295 218.069 24.804 216.494 24.409C211.147 23.067 179.944 30.74 162.5 37.685C134.22 48.945 110.185 64.603 88.642 85.8C70.072 104.073 56.35 123.134 44.943 146.5C34.641 167.605 29.732 182.451 25.483 205.351C23.723 214.84 24.381 219.085 27.842 220.566C31.171 221.992 68.574 231.798 71.061 231.897C72.47 231.954 74.529 231.156 75.637 230.124" />
    <glyph glyph-name="network-connection"
      unicode="&#xEA16;"
      horiz-adv-x="256" d="M193.5 246.589C172.053 241.266 156.853 218.515 160.671 197.451L161.688 191.841L124.442 173.225L87.195 154.61L82.348 159.442C73.166 168.594 58.641 173.19 45.41 171.13C21.142 167.352 4.721 144.75 8.831 120.783C10.455 111.31 14.213 104.112 21.163 97.163C28.112 90.213 35.31 86.455 44.781 84.831C58.179 82.533 72.882 87.123 82.348 96.558L87.195 101.39L124.439 82.776L161.683 64.162L160.672 57.884C156.148 29.797 182.336 4.114 210.704 8.815C245.865 14.642 260.116 57.978 234.995 82.684C217.503 99.887 190.63 100.203 173.652 83.406L168.805 78.61L131.585 97.212L94.365 115.814L95.373 121.907C96.05 126 96.05 130 95.373 134.093L94.365 140.186L131.585 158.788L168.805 177.39L173.605 172.658C198.644 147.972 241.395 162.356 247.206 197.422C252.211 227.629 223.396 254.009 193.5 246.589M216.522 228.882C231.927 221.188 236.606 201.197 226.198 187.547C224.046 184.725 220.201 181.402 217 179.599C212.188 176.887 210.562 176.503 204 176.525C197.832 176.546 195.586 177.028 191.351 179.241C179.247 185.566 173.521 199.011 177.354 212.108C179.881 220.744 187.358 228.229 196.139 230.912C201.439 232.532 211.151 231.564 216.522 228.882M64.262 152.904C70.096 149.98 73.725 146.387 76.789 140.5C78.916 136.413 79.391 134.131 79.391 128C79.391 118.931 76.414 112.222 69.923 106.666C56.305 95.009 35.675 99.212 27.235 115.362C23.563 122.389 23.407 133.306 26.883 140C30.978 147.885 37.182 152.924 45.5 155.12C50.178 156.355 59.596 155.243 64.262 152.904M216.522 76.882C231.927 69.188 236.606 49.197 226.198 35.547C224.046 32.725 220.201 29.402 217 27.599C212.188 24.887 210.562 24.503 204 24.525C197.832 24.546 195.586 25.028 191.351 27.241C179.247 33.566 173.521 47.011 177.354 60.108C179.881 68.744 187.358 76.229 196.139 78.912C201.439 80.532 211.151 79.564 216.522 76.882" />
    <glyph glyph-name="e-remove"
      unicode="&#xEA17;"
      horiz-adv-x="256" d="M46.899 211.25C39.623 203.47 36.335 208.176 78.567 165.933L116.49 128L78.544 90.044L40.598 52.088L44.592 47.376C51.723 38.963 47.684 36.195 90 78.5L128 116.49L165.755 78.745C186.52 57.985 203.979 41 204.552 41C205.544 41 211.05 46.439 213.982 50.317C215.237 51.976 212.059 55.432 177.433 90.067L139.51 128L177.456 165.956L215.402 203.912L211.408 208.624C204.277 217.037 208.316 219.805 166 177.5L128 139.51L90.245 177.255C69.48 198.015 52.021 215 51.448 215C50.875 215 48.828 213.312 46.899 211.25" />
    <glyph glyph-name="e-add"
      unicode="&#xEA18;"
      horiz-adv-x="256" d="M120 190L120 136L66 136L12 136L12 128L12 120L66 120L120 120L120 66L120 12L128 12L136 12L136 66L136 120L190 120L244 120L244 128L244 136L190 136L136 136L136 190L136 244L128 244L120 244L120 190" />
    <glyph glyph-name="single-02"
      unicode="&#xEA19;"
      horiz-adv-x="256" d="M152 100H104C62.092 100 28 65.908 28 24C28 22.42 28.932 20.988 30.376 20.344C31.876 19.676 67.844 4 128 4S224.124 19.676 225.624 20.344C227.068 20.988 228 22.42 228 24C228 65.908 193.908 100 152 100zM128 124C162.34 124 188 159.9 188 192C188 225.084 161.084 252 128 252S68 225.084 68 192C68 159.9 93.66 124 128 124z" />
    <glyph glyph-name="mail"
      unicode="&#xEA1A;"
      horiz-adv-x="256" d="M24.139 230.862C19.236 229.437 13.706 225.678 10.102 221.32C3.88 213.797 4 215.638 4 127.685C4 71.158 4.331 46.627 5.13 43.962C6.879 38.123 12.875 31.05 19 27.599L24.5 24.5L128 24.5L231.5 24.5L237 27.599C243.455 31.236 249.378 38.471 250.923 44.608C251.647 47.485 252 74.868 252 128.261C252 216.9 252.207 214.075 245.131 222.113C242.999 224.536 239.059 227.64 236.377 229.009L231.5 231.5L129.5 231.669C65.573 231.775 26.246 231.474 24.139 230.862M222.964 214.642C222.159 213.894 201.33 193.847 176.677 170.091L131.854 126.899L128.177 130.201C126.155 132.018 103.913 151.892 78.75 174.367C53.587 196.842 33 215.404 33 215.616C33 215.827 76.071 216 128.714 216C209.413 216 224.199 215.787 222.964 214.642M77.854 153.686L132.34 104.872L143.42 115.744C149.514 121.724 167.775 139.389 184 155C200.225 170.611 218.57 188.359 224.767 194.442L236.035 205.5L235.767 126.269L235.5 47.038L232.231 43.769L228.962 40.5L128 40.5L27.038 40.5L23.769 43.769L20.5 47.038L20.232 126.156C19.98 200.541 20.066 205.191 21.666 203.887C22.601 203.124 47.886 180.534 77.854 153.686" />
    <glyph glyph-name="check"
      unicode="&#xEA1B;"
      horiz-adv-x="256" d="M96 48C93.952 48 91.908 48.78 90.344 50.344L10.344 130.344L21.656 141.656L96 67.316L234.344 205.656L245.656 194.344L101.656 50.344C100.092 48.78 98.048 48 96 48z" />
  </font>
</defs>
</svg>
