<svg xmlns="http://www.w3.org/2000/svg" xmlns:xlink="http://www.w3.org/1999/xlink" width="50" height="60" viewBox="0 0 50 60"><defs><path id="a" d="M0 .001h50V60H0z"/></defs><clipPath id="b"><use xlink:href="#a" overflow="visible"/></clipPath><path d="M22.899 37.699c3.654-1.569 5.069-3.72 5.069-7.022V26.63c0-6.03-3.159-9.583-11.964-9.583H0v7.916h10.773v.014h3.902c2.243 0 3.323.909 3.323 2.727v3.551c0 1.817-.914 3.304-3.821 3.304h-3.404v.003H3.679v7.669h6.988v.012h5.087c2.741 0 3.905.99 3.905 3.386v2.891c0 2.147-.916 3.553-3.989 3.553H4.707v-.006H0V60h17c9.138 0 12.628-4.048 12.628-10.243v-3.964c0-4.212-2.491-7.104-6.729-8.094" clip-path="url(#b)" fill="#fff191"/><path fill="#fffbde" d="M40.127 0l-9.865 5.612-.003-.003v.005h-.003l.003.003-.003 11.28 9.871 5.619L50 16.897l-9.873-5.644z"/><path d="M50 16.901zM40.127 0l-9.871 5.621 9.871 5.643v11.252l9.869-5.61.004.001V5.621L40.127 0z" fill="#fff191"/></svg>