<svg xmlns="http://www.w3.org/2000/svg" style="display: none;"><symbol id="icon-circle-03" viewBox="0 0 64 64"><g class="nc-icon-wrapper"><g class="nc-loop_circle-03-64" transform="rotate(327.3102054886032 32 32)"> <path opacity="0.4" d="M32,64C14.35498,64,0,49.64453,0,32C0,14.35498,14.35498,0,32,0s32,14.35498,32,32 C64,49.64453,49.64502,64,32,64z M32,6C17.66357,6,6,17.66357,6,32c0,14.33691,11.66357,26,26,26s26-11.66309,26-26 C58,17.66357,46.33643,6,32,6z"/> <path d="M64,32h-6C58,17.66357,46.33643,6,32,6V0C49.64502,0,64,14.35498,64,32z"/> </g> <script>!function(){function t(t){return.5>t?4*t*t*t:(t-1)*(2*t-2)*(2*t-2)+1}function i(t){this.element=t,this.animationId,this.start=null,this.init()}if(!window.requestAnimationFrame){var n=null;window.requestAnimationFrame=function(t,i){var e=(new Date).getTime();n||(n=e);var a=Math.max(0,16-(e-n)),o=window.setTimeout(function(){t(e+a)},a);return n=e+a,o}}i.prototype.init=function(){var t=this;this.animationId=window.requestAnimationFrame(t.triggerAnimation.bind(t))},i.prototype.reset=function(){var t=this;window.cancelAnimationFrame(t.animationId)},i.prototype.triggerAnimation=function(i){var n=this;this.start||(this.start=i);var e=i-this.start;900>e||(this.start=this.start+900),this.element.setAttribute("transform","rotate("+Math.min(900*t(e/900)/2.5,360)+" 32 32)");if(document.documentElement.contains(this.element))window.requestAnimationFrame(n.triggerAnimation.bind(n))};var e=document.getElementsByClassName("nc-loop_circle-03-64"),a=[];if(e)for(var o=0;e.length>o;o++)!function(t){a.push(new i(e[t]))}(o);document.addEventListener("visibilitychange",function(){"hidden"==document.visibilityState?a.forEach(function(t){t.reset()}):a.forEach(function(t){t.init()})})}();</script></g></symbol><symbol id="icon-left-arrow" viewBox="0 0 64 64"><g class="nc-icon-wrapper" stroke-linecap="square" stroke-linejoin="miter" stroke="currentColor"><polyline fill="none" stroke="currentColor" stroke-miterlimit="10" points="46,60 18,32 46,4 "/></g></symbol><symbol id="icon-right-arrow" viewBox="0 0 64 64"><g class="nc-icon-wrapper" stroke-linecap="square" stroke-linejoin="miter" stroke="currentColor"><polyline fill="none" stroke="currentColor" stroke-miterlimit="10" points="18,4 46,32 18,60 "/></g></symbol><symbol id="icon-up-arrow" viewBox="0 0 64 64"><g class="nc-icon-wrapper" stroke-linecap="square" stroke-linejoin="miter" stroke="currentColor"><polyline fill="none" stroke="currentColor" stroke-miterlimit="10" points="4,46 32,18 60,46 "/></g></symbol><symbol id="icon-down-arrow" viewBox="0 0 64 64"><g class="nc-icon-wrapper" stroke-linecap="square" stroke-linejoin="miter" stroke="currentColor"><polyline fill="none" stroke="currentColor" stroke-miterlimit="10" points="60,18 32,46 4,18 "/></g></symbol><symbol id="icon-move-layer-down" viewBox="0 0 64 64"><g class="nc-icon-wrapper" stroke-linecap="square" stroke-linejoin="miter" stroke="currentColor"><line data-cap="butt" fill="none" stroke="currentColor" stroke-miterlimit="10" x1="32" y1="2" x2="32" y2="48" stroke-linecap="butt"/> <polyline fill="none" stroke="currentColor" stroke-miterlimit="10" points="16,32 32,48 48,32 "/> <line fill="none" stroke-miterlimit="10" x1="2" y1="62" x2="62" y2="62"/></g></symbol><symbol id="icon-move-up" viewBox="0 0 64 64"><g class="nc-icon-wrapper" stroke-linecap="square" stroke-linejoin="miter" stroke="currentColor"><line data-cap="butt" fill="none" stroke="currentColor" stroke-miterlimit="10" x1="32" y1="49" x2="32" y2="3" stroke-linecap="butt"/> <polyline fill="none" stroke="currentColor" stroke-miterlimit="10" points="48,19 32,3 16,19 "/> <line fill="none" stroke-miterlimit="10" x1="62" y1="62" x2="2" y2="62"/></g></symbol><symbol id="icon-direction-53" viewBox="0 0 64 64"><g class="nc-icon-wrapper" stroke-linecap="square" stroke-linejoin="miter" stroke="currentColor"><line data-cap="butt" fill="none" stroke="currentColor" stroke-miterlimit="10" x1="4" y1="18" x2="60" y2="18" stroke-linecap="butt"/> <line data-cap="butt" fill="none" stroke-miterlimit="10" x1="60" y1="46" x2="4" y2="46" stroke-linecap="butt"/> <polyline fill="none" stroke="currentColor" stroke-miterlimit="10" points="46,4 60,18 46,32 "/> <polyline fill="none" stroke-miterlimit="10" points=" 18,60 4,46 18,32 "/></g></symbol><symbol id="icon-pdf" viewBox="0 0 64 64"><g class="nc-icon-wrapper" stroke-linecap="square" stroke-linejoin="miter" stroke="currentColor"><path data-stroke="none" d="M26.9,40.6c0,1-0.3,1.8-0.9,2.3c-0.6,0.5-1.5,0.8-2.7,0.8h-0.8V47h-2v-9.3h3 c1.1,0,2,0.2,2.6,0.7C26.6,38.9,26.9,39.7,26.9,40.6z M22.4,42.1h0.6c0.6,0,1.1-0.1,1.4-0.4s0.5-0.6,0.5-1c0-0.5-0.1-0.8-0.4-1 c-0.3-0.2-0.6-0.3-1.2-0.3h-0.9V42.1z" stroke-linejoin="miter" stroke-linecap="square" stroke="none" fill="currentColor"/> <path data-stroke="none" d="M36.6,42.3c0,1.5-0.4,2.7-1.3,3.5c-0.9,0.8-2.1,1.2-3.8,1.2h-2.6v-9.3h2.9 c1.5,0,2.7,0.4,3.5,1.2C36.2,39.7,36.6,40.8,36.6,42.3z M34.5,42.3c0-2-0.9-3-2.6-3h-1v6h0.8C33.6,45.4,34.5,44.4,34.5,42.3z" stroke-linejoin="miter" stroke-linecap="square" stroke="none" fill="currentColor"/> <path data-stroke="none" d="M40.7,47h-1.9v-9.3h5.3v1.6h-3.4v2.4h3.1v1.6h-3.1V47z" stroke-linejoin="miter" stroke-linecap="square" stroke="none" fill="currentColor"/> <polyline data-cap="butt" fill="none" stroke="currentColor" stroke-miterlimit="10" points="40,2 40,18 56,18 " stroke-linecap="butt"/> <polyline fill="none" stroke="currentColor" stroke-miterlimit="10" points="56,32 56,18 40,2 8,2 8,32 "/> <polyline fill="none" stroke="currentColor" stroke-miterlimit="10" points="8,53 8,62 56,62 56,53 "/> <line data-cap="butt" fill="none" stroke="currentColor" stroke-miterlimit="10" x1="61" y1="32" x2="3" y2="32" stroke-linecap="butt"/> <polyline data-cap="butt" fill="none" stroke="currentColor" stroke-miterlimit="10" points="8,27 3,32 3,53 61,53 61,32 56,27 " stroke-linecap="butt"/></g></symbol><symbol id="icon-img-stack" viewBox="0 0 64 64"><g class="nc-icon-wrapper" stroke-linecap="square" stroke-linejoin="miter" stroke="currentColor"><rect x="4" y="12" width="56" height="46" fill="none" stroke="currentColor" stroke-miterlimit="10"/> <line x1="14" y1="6" x2="50" y2="6" fill="none" stroke-miterlimit="10"/> <polygon points="12 50 21 36 28 43 39 28 51 50 12 50" fill="none" stroke-miterlimit="10"/> <circle cx="21" cy="24" r="4" fill="none" stroke-miterlimit="10"/></g></symbol><symbol id="icon-shape-star-2" viewBox="0 0 64 64"><g class="nc-icon-wrapper"><path d="M62.951,24.956a1,1,0,0,0-.808-.681L41.935,21.338,32.9,3.026a1.04,1.04,0,0,0-1.793,0L22.065,21.338,1.856,24.275A1,1,0,0,0,1.3,25.98L15.926,40.235,12.474,60.362a1,1,0,0,0,1.45,1.054L32,51.914l18.076,9.5a1,1,0,0,0,1.45-1.054L48.074,40.235,62.7,25.98A1,1,0,0,0,62.951,24.956Z"/></g></symbol><symbol id="icon-shape-star-1" viewBox="0 0 64 64"><g class="nc-icon-wrapper" stroke-linecap="square" stroke-linejoin="miter" stroke="currentColor"><polygon points="32 5.37 40.652 22.902 60 25.714 46 39.36 49.305 58.63 32 49.532 14.695 58.63 18 39.36 4 25.714 23.348 22.902 32 5.37" fill="none" stroke="currentColor" stroke-miterlimit="10"/></g></symbol><symbol id="icon-zoom" viewBox="0 0 64 64"><g class="nc-icon-wrapper" stroke-linecap="square" stroke-linejoin="miter" stroke="currentColor"><line x1="59" y1="59" x2="42.556" y2="42.556" fill="none" stroke-miterlimit="10"/><circle cx="27" cy="27" r="22" fill="none" stroke="currentColor" stroke-miterlimit="10"/></g></symbol><symbol id="icon-heart-2" viewBox="0 0 64 64"><g class="nc-icon-wrapper"><path d="M56.305,8.874A16.244,16.244,0,0,0,44.781,4h-.149A15.945,15.945,0,0,0,32,10.162,15.944,15.944,0,0,0,19.37,4h-.065A16.339,16.339,0,0,0,3,20.455C3,36.107,30.2,58.812,31.362,59.771a1,1,0,0,0,1.276,0C33.8,58.812,61,36.107,61,20.463A16.237,16.237,0,0,0,56.305,8.874ZM44.693,5Z"/></g></symbol><symbol id="icon-heart-1" viewBox="0 0 64 64"><g class="nc-icon-wrapper" stroke-linecap="square" stroke-linejoin="miter" stroke="currentColor"><path d="M44.693,5A15.027,15.027,0,0,0,32,11.89,15.027,15.027,0,0,0,19.307,5,15.337,15.337,0,0,0,4,20.455C4,35.817,32,59,32,59S60,35.817,60,20.455A15.337,15.337,0,0,0,44.693,5Z" fill="none" stroke="currentColor" stroke-miterlimit="10"/></g></symbol><symbol id="icon-pin-3-1" viewBox="0 0 64 64"><g class="nc-icon-wrapper"><path d="M32,1C20.694,1,9,9.639,9,24.095C9,39.24,30.383,60.797,31.293,61.707C31.48,61.895,31.735,62,32,62 s0.52-0.105,0.707-0.293C33.617,60.797,55,39.24,55,24.095C55,9.639,43.306,1,32,1z M32,32c-4.418,0-8-3.582-8-8s3.582-8,8-8 s8,3.582,8,8S36.418,32,32,32z"/></g></symbol><symbol id="icon-pin-3-2" viewBox="0 0 64 64"><g class="nc-icon-wrapper" stroke-linecap="square" stroke-linejoin="miter" stroke="currentColor"><path fill="none" stroke="currentColor" stroke-miterlimit="10" d="M54,24.095 C54,39,32,61,32,61S10,39,10,24.095C10,10.113,21.369,2,32,2S54,10.113,54,24.095z"/> <circle fill="none" stroke-miterlimit="10" cx="32" cy="24" r="8"/></g></symbol><symbol id="icon-button-play" viewBox="0 0 64 64"><g class="nc-icon-wrapper" stroke-linecap="square" stroke-linejoin="miter" stroke="currentColor"><polygon points="11 60 11 4 59 32 11 60" fill="none" stroke="currentColor" stroke-miterlimit="10"/></g></symbol><symbol id="icon-play-media" viewBox="0 0 64 64"><g class="nc-icon-wrapper"><path d="M56,4H8A4,4,0,0,0,4,8V56a4,4,0,0,0,4,4H56a4,4,0,0,0,4-4V8A4,4,0,0,0,56,4ZM46.477,32.879l-24,13A1,1,0,0,1,21,45V19a1,1,0,0,1,1.477-.879l24,13a1,1,0,0,1,0,1.758Z"/></g></symbol><symbol id="icon-phone" viewBox="0 0 64 64"><g class="nc-icon-wrapper" stroke-linecap="square" stroke-linejoin="miter" stroke="currentColor"><path d="M41.387,38.587l-4.564,5.7A48.167,48.167,0,0,1,19.709,27.179l5.705-4.564a3.877,3.877,0,0,0,1.12-4.6l-5.2-11.71a3.878,3.878,0,0,0-4.52-2.18l-9.9,2.568A3.9,3.9,0,0,0,4.037,11,57.521,57.521,0,0,0,53,59.963a3.9,3.9,0,0,0,4.307-2.877l2.568-9.9a3.881,3.881,0,0,0-2.179-4.52l-11.709-5.2A3.874,3.874,0,0,0,41.387,38.587Z" fill="none" stroke="currentColor" stroke-miterlimit="10"/></g></symbol><symbol id="icon-network-connection" viewBox="0 0 64 64"><g class="nc-icon-wrapper" stroke-linecap="square" stroke-linejoin="miter" stroke="currentColor"><line data-cap="butt" x1="21.048" y1="27.976" x2="42.949" y2="17.025" fill="none" stroke-miterlimit="10" stroke-linecap="butt"/><line data-cap="butt" x1="42.949" y1="46.975" x2="21.048" y2="36.024" fill="none" stroke-miterlimit="10" stroke-linecap="butt"/><circle cx="13" cy="32" r="9" fill="none" stroke="currentColor" stroke-miterlimit="10"/><circle cx="51" cy="13" r="9" fill="none" stroke="currentColor" stroke-miterlimit="10"/><circle cx="51" cy="51" r="9" fill="none" stroke="currentColor" stroke-miterlimit="10"/></g></symbol><symbol id="icon-e-remove" viewBox="0 0 64 64"><g class="nc-icon-wrapper" stroke-linecap="square" stroke-linejoin="miter" stroke="currentColor"><line x1="51.092" y1="12.908" x2="12.908" y2="51.092" fill="none" stroke="currentColor" stroke-miterlimit="10"/><line x1="51.092" y1="51.092" x2="12.908" y2="12.908" fill="none" stroke="currentColor" stroke-miterlimit="10"/></g></symbol><symbol id="icon-e-add" viewBox="0 0 64 64"><g class="nc-icon-wrapper" stroke-linecap="square" stroke-linejoin="miter" stroke="currentColor"><line x1="32" y1="5" x2="32" y2="59" fill="none" stroke="currentColor" stroke-miterlimit="10"/><line x1="59" y1="32" x2="5" y2="32" fill="none" stroke="currentColor" stroke-miterlimit="10"/></g></symbol><symbol id="icon-single-02" viewBox="0 0 64 64"><g class="nc-icon-wrapper"><path d="M38,39H26C15.523,39,7,47.523,7,58c0,0.395,0.233,0.753,0.594,0.914 C7.969,59.081,16.961,63,32,63s24.031-3.919,24.406-4.086C56.767,58.753,57,58.395,57,58C57,47.523,48.477,39,38,39z"/> <path d="M32,33c8.585,0,15-8.975,15-17c0-8.271-6.729-15-15-15S17,7.729,17,16C17,24.025,23.415,33,32,33z"/></g></symbol><symbol id="icon-mail" viewBox="0 0 64 64"><g class="nc-icon-wrapper" stroke-linecap="square" stroke-linejoin="miter" stroke="currentColor"><polyline data-cap="butt" points="4.467 9.467 33 35 59.508 9.439" fill="none" stroke-miterlimit="10" stroke-linecap="butt"/><path d="M3,13V51a5,5,0,0,0,5,5H56a5,5,0,0,0,5-5V13a5,5,0,0,0-5-5H8A5,5,0,0,0,3,13Z" fill="none" stroke="currentColor" stroke-miterlimit="10"/></g></symbol><symbol id="icon-check" viewBox="0 0 64 64"><g class="nc-icon-wrapper"><path d="M24,52c-0.512,0-1.023-0.195-1.414-0.586l-20-20l2.828-2.828L24,47.171l34.586-34.585l2.828,2.828l-36,36 C25.023,51.805,24.512,52,24,52z"/></g></symbol></svg>