<svg xmlns="http://www.w3.org/2000/svg" style="display: none;"><symbol id="icon-check" viewBox="0 0 16 16"><g class="nc-icon-wrapper"><path d="M14.3,2.3L5,11.6L1.7,8.3c-0.4-0.4-1-0.4-1.4,0s-0.4,1,0,1.4l4,4C4.5,13.9,4.7,14,5,14s0.5-0.1,0.7-0.3 l10-10c0.4-0.4,0.4-1,0-1.4S14.7,1.9,14.3,2.3z"/></g></symbol><symbol id="icon-calendar-2" viewBox="0 0 16 16"><g class="nc-icon-wrapper"><path d="M15,2h-2V0h-3v2H6V0H3v2H1C0.448,2,0,2.448,0,3v12c0,0.552,0.448,1,1,1h14c0.552,0,1-0.448,1-1V3 C16,2.448,15.552,2,15,2z M14,14H2V7h12V14z"/></g></symbol><symbol id="icon-pin-3-2" viewBox="0 0 16 16"><g class="nc-icon-wrapper"><path d="M8,0C4.1,0,1,3.1,1,7c0,1.9,0.7,3.7,2.1,5c0.1,0.1,4.1,3.7,4.2,3.8c0.4,0.3,1,0.3,1.3,0 c0.1-0.1,4.2-3.7,4.2-3.8c1.4-1.3,2.1-3.1,2.1-5C15,3.1,11.9,0,8,0z M8,9C6.9,9,6,8.1,6,7s0.9-2,2-2c1.1,0,2,0.9,2,2S9.1,9,8,9z"/></g></symbol><symbol id="icon-a-chat" viewBox="0 0 16 16"><g class="nc-icon-wrapper"><path d="M1,0h14c0.552,0,1,0.448,1,1v10c0,0.552-0.448,1-1,1h-5l-6,4v-4H1c-0.552,0-1-0.448-1-1V1 C0,0.448,0.448,0,1,0z"/></g></symbol><symbol id="icon-a-edit" viewBox="0 0 16 16"><g class="nc-icon-wrapper"><circle cx="8" cy="4" r="4"/> <path d="M7,13.171l3.054-3.054C9.414,10.046,8.732,10,8,10c-3.192,0-5.539,0.795-6.837,1.382 C0.45,11.705,0,12.417,0,13.2V16h7V13.171z"/> <polygon points="11,16 9,16 9,14 14,9 16,11 "/></g></symbol><symbol id="icon-single-01-2" viewBox="0 0 16 16"><g class="nc-icon-wrapper"><circle cx="8" cy="4" r="4"/> <path d="M16,13.2a1.989,1.989,0,0,0-1.163-1.818A16.654,16.654,0,0,0,8,10a16.654,16.654,0,0,0-6.837,1.382A1.989,1.989,0,0,0,0,13.2V16H16Z"/></g></symbol><symbol id="icon-phone" viewBox="0 0 16 16"><g class="nc-icon-wrapper"><path d="M15.285,12.305l-2.578-2.594c-0.39-0.393-1.025-0.393-1.416-0.002L9,12L4,7l2.294-2.294 c0.39-0.39,0.391-1.023,0.001-1.414l-2.58-2.584C3.324,0.317,2.691,0.317,2.3,0.708L0.004,3.003L0,3c0,7.18,5.82,13,13,13 l2.283-2.283C15.673,13.327,15.674,12.696,15.285,12.305z"/></g></symbol><symbol id="icon-multiple-11" viewBox="0 0 16 16"><g class="nc-icon-wrapper"><path d="M8,6L8,6C6.3,6,5,4.7,5,3v0c0-1.7,1.3-3,3-3h0c1.7,0,3,1.3,3,3v0C11,4.7,9.7,6,8,6z"/> <polygon points="10,16 6,16 6,12 4,10 4,7 12,7 12,10 10,12 "/> <path d="M2,5L2,5C0.9,5,0,4.1,0,3v0c0-1.1,0.9-2,2-2h0c1.1,0,2,0.9,2,2v0C4,4.1,3.1,5,2,5z"/> <polygon points="3,10.4 3,6 0,6 0,9 1,10 1,14 4,14 4,11.4 "/> <path d="M14,5L14,5c1.1,0,2-0.9,2-2v0c0-1.1-0.9-2-2-2h0c-1.1,0-2,0.9-2,2v0C12,4.1,12.9,5,14,5z"/> <polygon points="13,10.4 13,6 16,6 16,9 15,10 15,14 12,14 12,11.4 "/></g></symbol><symbol id="icon-right-arrow-2" viewBox="0 0 16 16"><g class="nc-icon-wrapper"><polygon points="4.9,15.7 3.4,14.3 9.7,8 3.4,1.7 4.9,0.3 12.6,8 "/></g></symbol><symbol id="icon-left-arrow" viewBox="0 0 16 16"><g class="nc-icon-wrapper"><polygon points="11.1,15.7 3.4,8 11.1,0.3 12.6,1.7 6.3,8 12.6,14.3 "/></g></symbol><symbol id="icon-tag-2" viewBox="0 0 16 16"><g class="nc-icon-wrapper"><path d="M15.7,8.3l-8-8C7.5,0.1,7.3,0,7,0H1C0.4,0,0,0.4,0,1v6c0,0.3,0.1,0.5,0.3,0.7l8,8C8.5,15.9,8.7,16,9,16 s0.5-0.1,0.7-0.3l6-6C16.1,9.3,16.1,8.7,15.7,8.3z M4,5C3.4,5,3,4.6,3,4s0.4-1,1-1c0.6,0,1,0.4,1,1S4.6,5,4,5z"/></g></symbol><symbol id="icon-up-arrow" viewBox="0 0 16 16"><g class="nc-icon-wrapper"><polygon points="14.3,12.6 8,6.3 1.7,12.6 0.3,11.1 8,3.4 15.7,11.1 "/></g></symbol><symbol id="icon-down-arrow" viewBox="0 0 16 16"><g class="nc-icon-wrapper"><polygon points="8,12.6 0.3,4.9 1.7,3.4 8,9.7 14.3,3.4 15.7,4.9 "/></g></symbol><symbol id="icon-letter" viewBox="0 0 16 16"><g class="nc-icon-wrapper"><path d="M15,1H1C0.4,1,0,1.4,0,2v1.4l8,4.5l8-4.4V2C16,1.4,15.6,1,15,1z"/> <path d="M7.5,9.9L0,5.7V14c0,0.6,0.4,1,1,1h14c0.6,0,1-0.4,1-1V5.7L8.5,9.9C8.22,10.04,7.78,10.04,7.5,9.9z"/></g></symbol><symbol id="icon-e-remove" viewBox="0 0 16 16"><g class="nc-icon-wrapper"><path d="M14.7,1.3c-0.4-0.4-1-0.4-1.4,0L8,6.6L2.7,1.3c-0.4-0.4-1-0.4-1.4,0s-0.4,1,0,1.4L6.6,8l-5.3,5.3 c-0.4,0.4-0.4,1,0,1.4C1.5,14.9,1.7,15,2,15s0.5-0.1,0.7-0.3L8,9.4l5.3,5.3c0.2,0.2,0.5,0.3,0.7,0.3s0.5-0.1,0.7-0.3 c0.4-0.4,0.4-1,0-1.4L9.4,8l5.3-5.3C15.1,2.3,15.1,1.7,14.7,1.3z"/></g></symbol><symbol id="icon-zoom-in" viewBox="0 0 16 16"><g class="nc-icon-wrapper"><path d="M12.7,11.3c0.9-1.2,1.4-2.6,1.4-4.2C14.1,3.2,11,0,7.1,0S0,3.2,0,7.1c0,3.9,3.2,7.1,7.1,7.1 c1.6,0,3.1-0.5,4.2-1.4l3,3c0.2,0.2,0.5,0.3,0.7,0.3s0.5-0.1,0.7-0.3c0.4-0.4,0.4-1,0-1.4L12.7,11.3z M7.1,12.1 C4.3,12.1,2,9.9,2,7.1S4.3,2,7.1,2s5.1,2.3,5.1,5.1S9.9,12.1,7.1,12.1z"/> <polygon points="8,4 6,4 6,6 4,6 4,8 6,8 6,10 8,10 8,8 10,8 10,6 8,6 "/></g></symbol><symbol id="icon-clock-2" viewBox="0 0 16 16"><g class="nc-icon-wrapper"><path d="M8,0C3.6,0,0,3.6,0,8s3.6,8,8,8s8-3.6,8-8S12.4,0,8,0z M12,9H7V4h2v3h3V9z"/></g></symbol><symbol id="icon-pc-monitor-2" viewBox="0 0 16 16"><g class="nc-icon-wrapper"><path d="M15,0H1C0.4,0,0,0.4,0,1v11c0,0.6,0.4,1,1,1h5v1H3v2h10v-2h-3v-1h5c0.6,0,1-0.4,1-1V1C16,0.4,15.6,0,15,0z M14,11H2V2h12V11z"/></g></symbol><symbol id="icon-zoom" viewBox="0 0 16 16"><g class="nc-icon-wrapper"><path d="M12.7,11.3c0.9-1.2,1.4-2.6,1.4-4.2C14.1,3.2,11,0,7.1,0S0,3.2,0,7.1c0,3.9,3.2,7.1,7.1,7.1 c1.6,0,3.1-0.5,4.2-1.4l3,3c0.2,0.2,0.5,0.3,0.7,0.3s0.5-0.1,0.7-0.3c0.4-0.4,0.4-1,0-1.4L12.7,11.3z M7.1,12.1 C4.3,12.1,2,9.9,2,7.1S4.3,2,7.1,2s5.1,2.3,5.1,5.1S9.9,12.1,7.1,12.1z"/></g></symbol></svg>